# xmcd
#
# Track frame offsets:
#	150
#	16587
#	31442
#	46322
#	60975
#	77280
#	90755
#	103467
#	123135
#	136007
#	150162
#	163877
#
# Disc length: 2380 seconds
#
# Revision: 0
# Processed by: cddbd v1.4PL0 Copyright (c) Steve Scherf et al.
# Submitted via: audiograbber 1.81.01
#
DISCID=78094a0c
DTITLE=Claudio Villa - I grandi successi originali cd2
DYEAR=1900
DGENRE=pop
TTITLE0=Incantatella
TTITLE1=Luna rossa
TTITLE2=Madonna delle rose
TTITLE3=Scapricciatello
TTITLE4=Spazza camino
TTITLE5=L'eco del core
TTITLE6=Non pensare a me
TTITLE7=Munastero e' santa Chiara
TTITLE8=Serenata delle serenate
TTITLE9=Rosso di sera
TTITLE10=Perdonami
TTITLE11=Stornello a pungolo
EXTD=
EXTT0=
EXTT1=
EXTT2=
EXTT3=
EXTT4=
EXTT5=
EXTT6=
EXTT7=
EXTT8=
EXTT9=
EXTT10=
EXTT11=
PLAYORDER=
